<?xml version="1.0" encoding="utf-8"?>
<!-- Generator: Adobe Illustrator 24.2.1, SVG Export Plug-In . SVG Version: 6.00 Build 0)  -->
<svg version="1.1" id="图层_1" xmlns="http://www.w3.org/2000/svg" xmlns:xlink="http://www.w3.org/1999/xlink" x="0px" y="0px"
	 viewBox="0 0 208 55" style="enable-background:new 0 0 208 55;" xml:space="preserve">
<style type="text/css">
	.st0{fill:#1B4142;}
	.st1{fill:#870000;}
</style>
<path class="st0" d="M75.6,8.1c0,0,0.8-0.1,1.6,0.2c0,0,0.4,0.3,1.6,0c0,0,3.3-1.4,3.3-1.6c0,0,1.2-0.1,1.4-0.6c0,0,0.2-1.1,0.4-1.6
	c0,0,0.4-0.9,1.2-0.1c0,0,0.9,1.1,1.1,2.1c0,0,0.2,1-0.2,2c0,0-3.5,2.3-4.5,3c0,0-1.3,1,0,1.8c0,0,0.7,0.5,1,0.8
	c0,0,0.7,0.7-0.1,1.7c0,0-1.1,0.5-1.3,1c0,0,0,1,0.8,1.5c0,0,0.9,1.6,1,1.9c0,0,0.7,1.4-0.3,2.1c0,0-1,0.7-1.1,1.1
	c0,0-0.3,0.6,0.9,0.6c0,0,0.9-0.4,1.9-0.5c0,0,1.6,0.2,0.8,1.2c-0.8,1.1,0-0.2,0-0.2s-1.3,1.7-2,2.6c-0.7,0.9,0-0.1,0-0.1
	s-0.1,0.5,0.3,0.6c0,0,2.2,2.1,2.7,3.8c0,0,0.2,1.8-1.9,0.8c0,0-1.3-2.3-1.6-3.1c0,0-0.8-0.5-1.1-0.1c0,0-1.6,2.2-1.9,3.4
	c0,0-1.4,0.9-1.1-1c0,0,1.3-2,2.9-3.9c0,0,0.9-0.7,0.7-1.3c0,0-0.5-0.6-1,0.1c0,0-3.7,3-6.7,5.4c0,0-1.9,0.6-2.7-1.7
	c0,0-0.6-0.4,3.4-2.3c0,0,2.1-1.7,2.4-2.9c0,0,0.8-1.5,2-3.2c0,0,0.5-1.3-0.8-0.9c0,0-0.7,0.5-0.4-2.6c0,0-0.7-0.4-1.1,0
	c0,0-2.3,2.5-3.6,2.8c0,0-1.7,0.1-1.6-1.9c0,0-0.1-0.6,2.9-2.9c0,0,4-3.4,4.9-4.7c0,0,0.2-0.1,0.6-0.9c0,0,0.6-0.2,1.1-0.6
	c0,0,0.4-1,0.1-1.5c-0.3-0.6,0-0.1,0-0.1s-1.3,0.4-2.7,2c0,0-0.5,1.6-1.1,1.1C77.8,11.3,75,9.8,75.6,8.1"/>
<path class="st0" d="M115.3,20.3c0,0-1,0.1-1.3,0.7c0,0,0.6,1.8-1.2,2.5c0,0-1.4,0.3-1.6,0.8c0,0,0.1,2.6,0.7,3c0,0,3.2,2.8,3.5,4.5
	c0,0,0.5,2.1,0.3,3c0,0,0.6,0.6,1.3,0c0,0,1-2,1.7-6.6c0,0,0.3-1.2,1.7-0.4l0.2,0.4c0,0,0.6,0.4,1.5-0.2c0,0,0.3-4.4,0.2-5.5
	c0,0,0-1.3-0.6-0.5c0,0-0.1,0.7-0.2,0.5c0,0-0.6,0.3-0.8-0.1c0,0-0.1-5.8-0.3-6.5c0,0-1.2-2.3-3.5-3.8c0,0-1.7-0.4-1.1,1.3
	c0,0,1.2,1.3,1.9,2.6c0,0,0.3,2.2,0.1,4.9c0,0-0.3,3.2-0.8,4.6c0,0-0.2,0.4-0.3,0.8c0,0,0,0.1,0,0.1c-0.2,0.5-1.4,0.4-1.5-0.1
	c0,0-0.2-1,0.2-2.9c0,0,0.5-1.8,0.5-2.7C115.7,20.7,115.7,20.3,115.3,20.3"/>
<path class="st0" d="M125.3,11.6c0,0-1.5,0.4-1.6,1c0,0-0.4,0.5,0.4,0.8c0,0,0.1,6.5-0.3,8.1c0,0-0.8,4-0.7,4.9c0,0-1.2,2.6-0.8,4.1
	c0,0,0.3,2.9,1.6,4.3c0,0,1.6,1.6,2.3-0.5c0,0,0.1-1.4-0.9-3c0,0-0.3-1.4-0.1-3.2c0,0,0.1-1,1-0.6c0,0,0.2,0.3,0.3,0.3
	c0,0,0.5,0,0.7-0.1l0.1-0.4l0.3-0.1l0-4.2l0.4-0.1c0,0-0.1-1.6,0-1.9c0,0,0-0.3-0.8-0.2c0,0-0.3-1,0-1.3c0,0,0.2,0,0.3-0.1
	c0,0,0.4-3.7-0.3-5.5C127.1,13.9,126.9,12.1,125.3,11.6"/>
<path class="st0" d="M130.3,9.8v2.1h0.3l0.1,13.7l-0.3,0.1l-0.2,2.9l-0.3,0.1l-0.1,1.7c0,0-0.5,0.4-0.4,1.6c0,0,1.2,4,3.2,5.3
	c0,0,1.4,0.1,1.5-1.1l-0.3-0.6l-0.1-3.5l-0.2,0l0.3-8.9h0.3l0.4-6.2c0,0,0.1-4-2.2-7C132.3,10.2,130.9,9.4,130.3,9.8"/>
<path class="st0" d="M155.3,7.3c0,0,1.3,10.5,0.9,14.3c0,0-0.3,2.4-1.3,2.8c0,0-1.8,1.5-4.3,1.2l-0.9-0.9c0,0-0.8-0.4-1.2,0.2
	c0,0-0.4,0.7-0.2,1c0,0,0.7,0.3,0.8,1c0,0,0.5,1.2,1.4,2c0,0,0.8,0.6,3.4-0.6c0,0,1-0.6,1.3-0.7c0,0,0.2,2-1,3.9
	c0,0.1-0.1,0.1-0.1,0.2c-1.3,2-2.4,2.3-4.1,2.6c0,0-0.3,0.5,0.5,0.7c0,0,1.9,1.5,2.2,2c0,0,1.3,0.7,2.1-0.2c0,0,2-0.9,2.4-5.3
	c0,0,0.5-1.5,1.4-0.8c0,0,1.8,2.8,3.4,4.1c0,0,1.3,0.6,2.5,0.9c0,0,3.2-0.1,3.5,0.1c0,0,1.3,0.7,2.1,0.4c0,0,0.4-1.3-0.6-2.3
	c0,0-1.2-0.9-4.7-1.5c0,0-0.5,0.2-1.4-0.2c0,0-1.1-1.4-1.7-2c0,0-1.6-1.4-2.6-1.5c0,0-0.9-0.5-0.1-1.2c0,0-0.1-1.2,1-2.3
	c0,0,1.9-1.1,6.2-2.1c0,0,0.4-0.6-0.4-1.5c0,0-1.5-0.6-2.2-1.3c0,0-1.5-0.6-1.5-1c0,0-0.8,0.1-0.8,1.4c0,0,0.4,0.9-0.8,1
	c0,0-0.8,0.2-0.8-0.1c0,0,0.5-6.7,0.3-9.2c0,0-0.4-5.2-3.5-5.2C156.6,7.1,155.5,6.7,155.3,7.3"/>
<path class="st0" d="M191,7c0,0-0.5,1.1-0.4,2.1c0,0,0.1,0.7-0.8,0.7c0,0-0.7,0.1-0.9-0.2l0.3,0.3c0,0-0.3-0.6-1.5-0.4
	c0,0,0.1,0.4-0.2,0.4l-0.5-0.2c0,0-0.1,1.2,0.2,1.4c0,0,0.5-0.3,0.3,0.3c0,0-0.2,3.2,0.1,4.1c0,0,0.6,0.1,0.6,0.3
	c0,0,0.1-0.1,0.3,0.4c0,0,0.4,0.3,1.2,0.2c0,0-0.1-0.2,0.2-0.4c0,0,0.2-0.1,0.5-0.3c0.3-0.2,0-0.2,0-0.2s-0.3-0.2-0.1-0.6
	c0,0-0.3-0.2,0.2-0.3c0,0,0.1,0.3,0.1-0.5c0,0-0.2-1.5,0.1-1.6c0,0,0,0.1,0.3-0.6c0,0,0.5,0.1,0.5-0.4c0-0.1,0.1-0.7,0.1-0.7
	s0.8-0.4,0.8,0c0,0-0.1,0.9,0.3,0.8c0,0,0.2,0.5,0.2,0.8c0,0,0.3,0,0.4,0.4c0,0,0.8,0.4,1.8,0c0,0,1.1-2.3,1.9-3
	c0,0,0.6,0.1,0.8-0.1c0,0-0.4-0.1,0.1-0.4c0,0,0.8-0.1,0.8,0.5c0,0,0.7,0.2,1.2,0c0,0,0.1,0.7,0,1c0,0-3.6,3.1-5.3,4.9
	c0,0-0.3,0.4-0.1,0.8c0,0-6,1.4-8.1,2.7c0,0-1.6,0.8-1.1,2.9c0,0,1.2,1.6,1.9,2.2c0,0,1-1.4,3.2-3.1c0,0,5.2-3.4,8.4-3.4
	c0,0-0.1,0.5,1,0.5c0,0,0.4,1.9-0.6,2.1c0,0-0.8,0.6-1.2,1c0,0-0.3,0.2-0.9-0.1c0,0-0.9-0.7-1.6,0c0,0-1.3,0.3-2.7,1.9
	c0,0-0.9,3.2,2.4,1.8c0,0,2.5-2.6,1.9,0.3c0,0-0.4,1.5-1,2.3c0,0-1.8,0.4-3.5,1.6c0,0-1.5,0.8-3,0.4c0,0-1.7-0.8-2.4,0.9
	c0,0-0.3,0.9,1.9,1.1c0,0,3.6,1.2,6.3,1.4c0,0,1.4,0.6-0.4,1.2c0,0-4.7,0.2-6,0.5c0,0-1.4,1.1,3.9,2.5c0,0,1.1,0.1,1.4,0.3
	c0,0,2.3,0.7,3.1-0.7c0.8-1.4,0.1-0.2,0.1-0.2s1.7-1.2,2.1-3.8c0,0,2.3-0.6,3.7-1.6c0,0,1.1-2.7-4.7-3.8c0,0-0.3-0.8,1-2.5
	c0,0,1.1-1.9,1.6-2.6c0,0,1.4-0.2,2.4-1.4c0,0,1.7-1.1-0.1-2.9c0,0-0.1-1-1.5-0.7c0,0,0.5-1-3.7-1.3c0,0-1.1-0.5,1-2.1
	c0,0,3.4-2.4,4.7-2.8c0,0,1.3-1-1.1-2.7c0,0-0.6-0.1-1-0.1c0,0,0.3-0.6-1.6-0.3c0,0-1.4-0.5-1.6-1.4c0,0-0.8-1-1.2,0.1
	c0,0-0.6,0.8-1.2,1.2c0,0-1.5,0.6-2.2-0.1c0,0-0.8-0.3-1.4-0.9C192.6,6.9,191.9,6.3,191,7"/>
<path class="st0" d="M94.1,28.2c0,0-1.8,0.2-2.2,0c0,0,0-12.9,0.2-13c0,0,0.1-0.9,1.4-1.1c0,0,1.4-0.5,1.2,1.3c0,0,0,0.1,0,0.1
	c-0.3,1.9-0.8,2.1-1.4,4.4c0,0-0.1,1.7,0.5,2.4c0,0,1.7,1.3,1.3,4.7C95.1,27,95.2,28.3,94.1,28.2 M96.7,23.3
	C95.3,22,94.2,20,94.2,20c3-4.3,2.6-6.2,2.6-6.2c-0.4-2.4-2.8-1.9-2.8-1.9c-1.5,1-1.6,0.4-1.6,0.4s-0.2,2.1,0-0.2
	c0.1-2.2,0.4-3.8,0.4-3.8C92.2,7.1,91,8,91,8c-0.8,0.6-0.9,6.3-0.9,6.3c0.2,0.5-0.3,0.7-0.3,0.7c-2,2-3.1,4.3-3.1,4.3
	c0,2.1,1.7,0.7,1.7,0.7c0.2-1.2,0.8-1.7,0.8-1.7c0.5-0.4,0.5,0.4,0.5,0.4c-0.3,3.8,0,18.2,0,18.2c0.4,1.9,1.6,2.7,1.6,2.7
	c1.7,0.7,1.1-3.1,1.1-3.1c-0.5-4.9-0.4-6.5-0.4-6.5c-0.1-0.3,0.5-0.2,0.5-0.2c2.5,1.6,4.6-2.2,4.6-2.2
	C97.8,25.1,96.7,23.3,96.7,23.3"/>
<polygon class="st0" points="72,50.2 72,49.3 75.9,44.7 72.3,44.7 72.3,43.8 77.3,43.8 77.3,44.6 73.3,49.3 77.4,49.3 77.4,50.2 "/>
<polygon class="st0" points="83.4,50.2 83.4,47.4 80.2,47.4 80.2,50.2 79.1,50.2 79.1,43.8 80.2,43.8 80.2,46.4 83.4,46.4 
	83.4,43.8 84.5,43.8 84.5,50.2 "/>
<polygon class="st0" points="86.7,50.1 86.7,43.7 91.5,43.7 91.5,44.7 87.8,44.7 87.8,46.4 91.3,46.4 91.3,47.3 87.8,47.3 
	87.8,49.2 91.6,49.2 91.6,50.1 "/>
<path class="st0" d="M94.9,43.8c0,0,2.7,4.3,2.7,4.4c0.1,0.1,0.4,0.7,0.4,0.7h0c0-0.1,0-0.8,0-0.9v-4.1h1v6.4l-1.2,0
	c0,0-2.7-4.4-2.8-4.5c-0.1-0.1-0.3-0.6-0.4-0.6h0c0,0.2,0,0.8,0,1.1v4.1h-1v-6.4H94.9z"/>
<path class="st0" d="M107,48.9c-0.4,0.8-1.3,1.3-2.8,1.3c-1.9,0-3.1-1.3-3.1-3.3c0-2,1.2-3.3,3-3.3c1.6,0,2.5,0.7,2.9,1.7l-1,0.4
	c-0.3-0.8-0.9-1.1-1.8-1.1c-1.1,0-1.9,1-1.9,2.3c0,1.5,0.9,2.4,2,2.4c0.9,0,1.5-0.3,1.8-0.7v-1.1h-2v-0.9h3V48.9z"/>
<polygon class="st0" points="108.6,50.2 108.6,49.3 112.5,44.7 108.9,44.7 108.9,43.8 113.9,43.8 113.9,44.6 109.9,49.3 114,49.3 
	114,50.2 "/>
<polygon class="st0" points="120,50.2 120,47.4 116.8,47.4 116.8,50.2 115.7,50.2 115.7,43.8 116.8,43.8 116.8,46.4 120,46.4 
	120,43.8 121.1,43.8 121.1,50.2 "/>
<path class="st0" d="M128,47c0-1.5-0.8-2.4-1.9-2.4c-1.1,0-2,0.9-2,2.4c0,1.5,0.9,2.3,1.9,2.3C127.3,49.3,128,48.4,128,47 M129.2,47
	c0,2-1.2,3.3-3.1,3.3c-1.8,0-3.1-1.3-3.1-3.3c0-2,1.2-3.3,3.1-3.3C128.1,43.7,129.2,45.1,129.2,47"/>
<path class="st0" d="M131.1,43.8h1.1v3.7c0,1.4,0.6,1.9,1.6,1.9c1.1,0,1.6-0.6,1.6-1.9v-3.6h1.1v3.6c0,1.9-0.9,2.9-2.8,2.9
	c-1.8,0-2.7-0.9-2.7-2.8V43.8z"/>
<path class="st0" d="M141.7,43.8h1.1v3.7c0,1.4,0.6,1.9,1.6,1.9c1.1,0,1.6-0.6,1.6-1.9v-3.6h1.1v3.6c0,1.9-0.9,2.9-2.8,2.9
	c-1.8,0-2.7-0.9-2.7-2.8V43.8z"/>
<path class="st0" d="M150.6,43.8c0,0,2.7,4.3,2.7,4.4c0.1,0.1,0.4,0.7,0.4,0.7h0c0-0.1,0-0.8,0-0.9v-4.1h1v6.4l-1.2,0
	c0,0-2.7-4.4-2.8-4.5c-0.1-0.1-0.3-0.6-0.4-0.6h0c0,0.2,0,0.8,0,1.1v4.1h-1v-6.4H150.6z"/>
<rect x="157" y="43.8" class="st0" width="1.1" height="6.4"/>
<path class="st0" d="M163.4,50.2h-1.2l-2.5-6.4h1.2l1.7,4.8c0.1,0.2,0.2,0.6,0.2,0.6h0c0-0.1,0.2-0.5,0.2-0.6l1.7-4.8h1.2
	L163.4,50.2z"/>
<polygon class="st0" points="167.5,50.1 167.5,43.7 172.2,43.7 172.2,44.7 168.5,44.7 168.5,46.4 172,46.4 172,47.3 168.5,47.3 
	168.5,49.2 172.4,49.2 172.4,50.1 "/>
<path class="st0" d="M175.4,46.6h1.6c1,0,1.4-0.3,1.4-1c0-0.7-0.4-1-1.4-1h-1.6V46.6z M178.6,50.2l-1.9-2.7h-1.3v2.7h-1.1v-6.4h2.9
	c1.5,0,2.3,0.8,2.3,1.8c0,1-0.5,1.7-1.7,1.8l2.1,2.7H178.6z"/>
<path class="st0" d="M182.3,47.9c0.2,1,0.7,1.5,1.7,1.5c0.9,0,1.3-0.5,1.3-1c0-0.4-0.2-0.7-1.1-1c-0.2-0.1-0.6-0.2-0.9-0.2
	c-1.4-0.3-1.9-0.9-1.9-1.8c0-1,0.9-1.7,2.3-1.7c1.6,0,2.3,0.6,2.6,1.8l-1.1,0.2c-0.1-0.7-0.6-1.1-1.4-1.1c-0.8,0-1.2,0.4-1.2,0.8
	c0,0.5,0.3,0.7,1.4,1c0.3,0.1,0.8,0.2,1.1,0.3c1.1,0.4,1.4,1,1.4,1.7c0,1.1-0.9,1.9-2.4,1.9c-1.7,0-2.5-0.7-2.8-2.1L182.3,47.9z"/>
<rect x="188.5" y="43.8" class="st0" width="1.1" height="6.4"/>
<polygon class="st0" points="194.5,44.7 194.5,50.2 193.4,50.2 193.4,44.7 191.3,44.7 191.3,43.8 196.7,43.8 196.7,44.7 "/>
<path class="st0" d="M198.9,43.8c0,0,1.5,2.3,1.6,2.4c0.1,0.1,0.3,0.4,0.3,0.5h0c0.1-0.1,0.2-0.4,0.3-0.5c0.1-0.2,1.5-2.4,1.5-2.4
	h1.3l-2.6,3.8v2.6h-1.1v-2.6l-2.6-3.8H198.9z"/>
<path class="st1" d="M23.9,30.3l-4,9h8.7l3.5-8.3l3.5,8.3h8.7l-4.5-9.9c0,0,0,0,0,0C30.6,31.7,24.6,30.7,23.9,30.3"/>
<path class="st1" d="M34.2,20c0.5-0.1,1-0.1,1.4-0.2L32,12l-3.9,8.7C30.4,20.4,32.6,20.2,34.2,20"/>
<path class="st0" d="M26,47.7c0,0-0.2,0-0.3,0.1c0,0,0,0.3-0.3,0.4c0,0-0.3,0-0.3,0.1c0,0-0.1,0.5,0,0.5c0,0,0.4,0.6,0.4,0.9
	c0,0,0,0.4-0.1,0.5c0,0,0.1,0.1,0.2,0.1c0,0,0.2-0.3,0.6-1.1c0,0,0.1-0.2,0.3,0l0,0.1c0,0,0.1,0.1,0.3,0c0,0,0.2-0.7,0.3-0.9
	c0,0,0-0.2-0.1-0.1c0,0-0.1,0.1-0.1,0.1c0,0-0.1,0-0.1-0.1c0,0,0.2-1,0.2-1.1c0,0-0.1-0.4-0.5-0.8c0,0-0.3-0.1-0.2,0.2
	c0,0,0.1,0.3,0.2,0.5c0,0,0,0.4-0.2,0.8c0,0-0.2,0.5-0.3,0.8c0,0,0,0.1-0.1,0.1c0,0,0,0,0,0c0,0.1-0.3,0-0.3-0.1c0,0,0-0.2,0.1-0.5
	C25.8,48.3,26,48,26,47.7C26,47.8,26,47.8,26,47.7"/>
<path class="st0" d="M28,46.7c0,0-0.3,0-0.3,0.1c0,0-0.1,0.1,0,0.2c0,0-0.2,1.1-0.4,1.4c0,0-0.3,0.6-0.3,0.8c0,0-0.3,0.4-0.3,0.7
	c0,0-0.1,0.5,0.1,0.8c0,0,0.2,0.3,0.4,0c0,0,0.1-0.2,0-0.5c0,0,0-0.3,0.1-0.5c0,0,0.1-0.2,0.2-0.1c0,0,0,0.1,0,0.1c0,0,0.1,0,0.1,0
	l0-0.1l0.1,0l0.2-0.7l0.1,0c0,0,0-0.3,0.1-0.3c0,0,0-0.1-0.1-0.1c0,0,0-0.2,0-0.2c0,0,0,0,0.1,0c0,0,0.2-0.6,0.2-1
	C28.2,47.1,28.2,46.8,28,46.7"/>
<path class="st0" d="M28.9,46.6l-0.1,0.4l0,0l-0.5,2.3l-0.1,0l-0.1,0.5l-0.1,0L28,50.1c0,0-0.1,0-0.1,0.3c0,0,0,0.7,0.3,1
	c0,0,0.2,0.1,0.3-0.1l0-0.1l0.1-0.6l0,0L29,49l0.1,0l0.3-1c0,0,0.2-0.7-0.1-1.3C29.2,46.7,29,46.5,28.9,46.6"/>
<path class="st0" d="M36.2,46.2c0,0,0.6,1.8,0.7,2.4c0,0,0,0.4-0.1,0.5c0,0-0.3,0.3-0.7,0.4l-0.2-0.1c0,0-0.1,0-0.2,0.1
	c0,0,0,0.1,0,0.2c0,0,0.1,0,0.2,0.1c0,0,0.1,0.2,0.3,0.3c0,0,0.2,0.1,0.6-0.2c0,0,0.2-0.1,0.2-0.2c0,0,0.1,0.3,0,0.7c0,0,0,0,0,0
	c-0.1,0.4-0.3,0.5-0.6,0.6c0,0,0,0.1,0.1,0.1c0,0,0.4,0.2,0.4,0.3c0,0,0.2,0.1,0.4-0.1c0,0,0.3-0.2,0.2-1c0,0,0-0.3,0.2-0.2
	c0,0,0.4,0.4,0.7,0.6c0,0,0.2,0,0.5,0.1c0,0,0.5-0.1,0.6-0.1c0,0,0.3,0.1,0.4,0c0,0,0-0.2-0.2-0.4c0,0-0.2-0.1-0.9-0.1
	c0,0-0.1,0-0.2,0c0,0-0.2-0.2-0.4-0.3c0,0-0.3-0.2-0.5-0.2c0,0-0.2-0.1-0.1-0.2c0,0-0.1-0.2,0.1-0.4c0,0,0.3-0.3,1-0.6
	c0,0,0-0.1-0.1-0.2c0,0-0.3,0-0.4-0.1c0,0-0.3-0.1-0.3-0.1c0,0-0.1,0-0.1,0.3c0,0,0.1,0.1-0.1,0.2c0,0-0.1,0.1-0.1,0
	c0,0-0.1-1.2-0.3-1.6c0,0-0.2-0.9-0.8-0.8C36.4,46.1,36.2,46.1,36.2,46.2"/>
<path class="st0" d="M43.8,42.4c0,0,0,0.2,0.1,0.4c0,0,0.1,0.1-0.1,0.2c0,0-0.1,0.1-0.2,0c-0.1,0,0.1,0,0.1,0s-0.1-0.1-0.3,0.1
	c0,0,0.1,0,0,0.1l-0.1,0c0,0,0.1,0.2,0.2,0.2c0,0,0-0.1,0.1,0c0,0,0.3,0.5,0.4,0.6c0,0,0.1,0,0.1,0c0,0,0,0,0.1,0c0,0,0.1,0,0.2-0.1
	c0,0,0,0,0-0.1c0,0,0,0,0.1-0.1c0-0.1,0,0,0,0s-0.1,0-0.1-0.1c0,0-0.1,0,0-0.1c0,0,0,0,0-0.1c0,0-0.2-0.2-0.1-0.3c0,0,0,0,0-0.1
	c0,0,0.1,0,0-0.1c0,0,0-0.1,0-0.1s0.1-0.1,0.1-0.1c0,0,0.1,0.1,0.1,0.1c0,0,0.1,0.1,0.1,0.1c0,0,0,0,0.1,0c0,0,0.2,0,0.3-0.1
	c0,0,0-0.5,0-0.6c0,0,0.1,0,0.1-0.1c0,0-0.1,0,0-0.1c0,0,0.1-0.1,0.2,0c0,0,0.1,0,0.2-0.1c0,0,0.1,0.1,0.1,0.1c0,0-0.3,0.8-0.4,1.2
	c0,0,0,0.1,0,0.1c0,0-0.8,0.7-1,1.1c0,0-0.2,0.3,0.1,0.5c0,0,0.3,0.1,0.5,0.2c0,0,0-0.3,0.2-0.7c0,0,0.5-1,1-1.2c0,0,0,0.1,0.2,0
	c0,0,0.2,0.3,0.1,0.4c0,0-0.1,0.2-0.1,0.2c0,0,0,0.1-0.1,0.1c0,0-0.2,0-0.2,0.1c0,0-0.2,0.1-0.2,0.5c0,0,0.1,0.6,0.5,0.1
	c0,0,0.2-0.6,0.3-0.1c0,0,0.1,0.3,0,0.4c0,0-0.2,0.2-0.4,0.5c0,0-0.2,0.2-0.4,0.3c0,0-0.3,0-0.3,0.3c0,0,0,0.2,0.4,0
	c0,0,0.6-0.1,1.1-0.3c0,0,0.3,0,0,0.2c0,0-0.7,0.4-0.9,0.6c0,0-0.1,0.3,0.8,0c0,0,0.2-0.1,0.2-0.1c0,0,0.4-0.1,0.4-0.4
	c0-0.3,0,0,0,0s0.2-0.3,0-0.8c0,0,0.3-0.3,0.4-0.6c0,0-0.1-0.5-1-0.2c0,0-0.1-0.1-0.1-0.5c0,0,0-0.4,0-0.5c0,0,0.2-0.2,0.2-0.4
	c0,0,0.2-0.3-0.3-0.4c0,0-0.1-0.1-0.3,0c0,0,0-0.2-0.7,0.1c0,0-0.2,0,0-0.4c0,0,0.3-0.6,0.5-0.8c0,0,0.1-0.3-0.4-0.3
	c0,0-0.1,0-0.2,0.1c0,0,0-0.1-0.3,0.1c0,0-0.3,0-0.4-0.1c0,0-0.2-0.1-0.2,0.1c0,0,0,0.2-0.1,0.3c0,0-0.2,0.2-0.4,0.2
	c0,0-0.1,0-0.3,0C44,42.3,43.9,42.3,43.8,42.4"/>
<path class="st0" d="M18.8,41.3c0,0,0.1,0.1,0.2,0.2c0,0,0,0.1,0.2,0.2c0,0,0.6,0.2,0.6,0.2c0,0,0.2,0.1,0.3,0.1
	c0,0,0.1-0.1,0.2-0.2c0,0,0.2-0.1,0.2,0.1c0,0,0,0.3-0.1,0.4c0,0-0.1,0.2-0.2,0.2c0,0-0.7-0.1-0.9-0.1c0,0-0.3,0-0.2,0.2
	c0,0,0,0.1,0.1,0.2c0,0,0,0.2-0.2,0.2c0,0-0.2,0-0.3,0c0,0-0.1,0.1-0.1,0.3c0,0-0.1,0.3-0.1,0.4c0,0-0.1,0.3-0.3,0.3
	c0,0-0.2,0-0.3,0c0,0-0.1,0.1,0.1,0.2c0,0,0.2,0,0.3,0.1c0,0,0.2,0.2,0,0.3c-0.2,0,0,0,0,0s-0.4,0.1-0.6,0.1c-0.2,0,0,0,0,0
	s-0.1,0.1,0,0.1c0,0,0.1,0.5,0,0.8c0,0-0.2,0.3-0.3-0.1c0,0,0.1-0.5,0.1-0.6c0,0,0-0.2-0.1-0.1c0,0-0.5,0.1-0.6,0.3c0,0-0.3,0,0-0.3
	c0,0,0.4-0.1,0.8-0.2c0,0,0.2,0,0.2-0.1c0,0,0-0.1-0.1-0.1c0,0-0.8,0-1.5,0c0,0-0.3-0.1-0.2-0.5c0,0,0-0.1,0.7,0.1
	c0,0,0.5,0,0.7-0.1c0,0,0.3-0.1,0.6-0.2c0,0,0.2-0.1,0-0.2c0,0-0.1,0,0.2-0.4c0,0,0-0.1-0.1-0.1c0,0-0.6,0.1-0.8,0
	c0,0-0.3-0.2,0-0.4c0,0,0-0.1,0.7-0.1c0,0,0.9,0,1.2-0.1c0,0,0,0,0.2-0.1c0,0,0.1,0,0.2,0c0,0,0.2-0.1,0.2-0.2c0-0.1,0,0,0,0
	s-0.2-0.1-0.6,0c0,0-0.2,0.2-0.3,0C18.8,41.9,18.6,41.4,18.8,41.3"/>
<path class="st0" d="M20,45.7c0-0.3,0-0.7,0-0.7c0.9-0.2,1-0.5,1-0.5c0.2-0.4-0.2-0.6-0.2-0.6c-0.3,0-0.3-0.1-0.3-0.1s-0.3,0.3,0,0
	c0.3-0.3,0.5-0.5,0.5-0.5c0.1-0.2-0.2-0.2-0.2-0.2c-0.2,0-0.8,0.8-0.8,0.8c0,0.1-0.1,0.1-0.1,0.1c-0.5,0.1-0.9,0.2-0.9,0.2
	c-0.2,0.3,0.2,0.3,0.2,0.3c0.2-0.1,0.3-0.1,0.3-0.1c0.1,0,0,0.1,0,0.1c-0.5,0.5-2,2.5-2,2.5c-0.2,0.3-0.1,0.5-0.1,0.5
	C17.6,47.6,18,47,18,47c0.5-0.7,0.7-0.9,0.7-0.9c0-0.1,0.1,0,0.1,0c0.2,0.5,0.9,0.2,0.9,0.2C20,46,20,45.7,20,45.7 M19.1,46
	c0,0-0.3-0.2-0.3-0.2c0,0,1.4-1.8,1.5-1.7c0,0,0.1-0.1,0.3,0c0,0,0.2,0.1,0,0.3c0,0,0,0,0,0c-0.3,0.2-0.3,0.2-0.7,0.4
	c0,0-0.2,0.2-0.2,0.4c0,0,0.1,0.4-0.3,0.8C19.4,46,19.3,46.2,19.1,46"/>
<polygon class="st0" points="13.2,33.1 12.6,33.3 9.9,31.8 10.3,33.6 9.8,33.7 9.2,31 9.7,30.9 12.4,32.4 11.9,30.3 12.5,30.2 "/>
<polygon class="st0" points="12.3,26.9 10.9,26.9 10.9,28.5 12.4,28.5 12.4,29.2 8.9,29.2 8.9,28.5 10.3,28.5 10.3,26.9 8.9,27 
	8.9,26.2 12.3,26.2 "/>
<polygon class="st0" points="12.4,24.9 9,24.2 9.5,21.7 10.1,21.8 9.7,23.6 10.5,23.8 10.9,22 11.4,22.1 11.1,23.9 12,24.1 
	12.3,22.1 12.9,22.2 "/>
<path class="st0" d="M14.1,19c0,0-2.5,0.4-2.6,0.5c-0.1,0-0.3,0-0.4,0l0,0c0.1,0,0.4,0.1,0.6,0.2l1.8,0.8l-0.3,0.6l-3.2-1.3l0.3-0.7
	c0,0,2.5-0.4,2.5-0.4c0.1,0,0.3,0,0.4,0l0,0c-0.1,0-0.4-0.1-0.5-0.2l-1.9-0.8l0.3-0.6l3.2,1.3L14.1,19z"/>
<path class="st0" d="M16.3,14.1c0.3,0.4,0.2,1-0.3,1.7c-0.6,0.9-1.6,1-2.4,0.4c-0.9-0.6-1.1-1.6-0.5-2.4c0.5-0.7,1.1-0.9,1.6-0.8
	l-0.2,0.7c-0.4-0.1-0.7,0.1-0.9,0.4c-0.3,0.4-0.1,1,0.4,1.4c0.6,0.5,1.2,0.3,1.5-0.1c0.2-0.4,0.3-0.7,0.2-0.9l-0.4-0.3l-0.6,0.9
	l-0.5-0.3l1-1.4L16.3,14.1z"/>
<polygon class="st0" points="17.5,13.8 17.1,13.4 17,10.3 15.6,11.6 15.2,11.2 17.3,9.3 17.6,9.7 17.7,12.8 19.3,11.3 19.7,11.7 "/>
<polygon class="st0" points="22.5,9.9 21.7,8.7 20.4,9.5 21.1,10.7 20.5,11.1 18.7,8.2 19.3,7.8 20,9 21.4,8.1 20.6,7 21.3,6.6 
	23.1,9.5 "/>
<path class="st0" d="M26.8,6.3c0.3,1-0.1,1.9-1,2.2c-0.9,0.3-1.8-0.1-2.2-1.1c-0.3-1,0-1.9,1-2.2C25.6,4.8,26.5,5.3,26.8,6.3
	 M26,6.5c-0.2-0.7-0.7-1-1.3-0.8c-0.5,0.2-0.7,0.7-0.5,1.4c0.2,0.7,0.8,1,1.3,0.8C26.1,7.7,26.3,7.2,26,6.5"/>
<path class="st0" d="M28.1,4.2l0.7-0.1l0.2,2c0.1,0.7,0.4,0.9,0.9,0.8c0.5-0.1,0.8-0.4,0.7-1L30.4,4l0.7-0.1l0.2,1.9
	c0.1,1-0.3,1.6-1.4,1.7c-1,0.1-1.5-0.4-1.7-1.4L28.1,4.2z"/>
<path class="st0" d="M36.3,4.2L37,4.4l-0.5,1.9c-0.2,0.6,0.1,1,0.6,1.1c0.5,0.1,0.8-0.1,1-0.7l0.5-1.9L39.3,5l-0.5,1.9
	c-0.2,1-0.8,1.4-1.9,1.2c-1-0.2-1.3-0.9-1.1-1.9L36.3,4.2z"/>
<path class="st0" d="M41.7,9.8c0,0-0.2-2.6-0.3-2.6c0-0.1,0-0.3,0-0.4l0,0c-0.1,0.1-0.2,0.4-0.3,0.5l-0.9,1.8l-0.6-0.3l1.5-3.1L42,6
	c0,0,0.2,2.5,0.2,2.6c0,0.1,0,0.3,0,0.4l0,0c0-0.1,0.2-0.4,0.2-0.5l0.9-1.8L44,7l-1.5,3.1L41.7,9.8z"/>
<rect x="42.9" y="9.2" transform="matrix(0.5774 -0.8165 0.8165 0.5774 11.0301 40.5172)" class="st0" width="3.5" height="0.7"/>
<path class="st0" d="M46.2,13.1l-0.6-0.6L47,9.1l0.6,0.5L46.5,12c-0.1,0.1-0.1,0.3-0.2,0.3l0,0c0,0,0.2-0.1,0.3-0.2l2.3-1.2l0.6,0.5
	L46.2,13.1z"/>
<polygon class="st0" points="47.7,14.7 50.5,12.8 52,14.9 51.5,15.2 50.5,13.7 49.8,14.1 50.8,15.6 50.3,15.9 49.3,14.5 48.6,15 
	49.7,16.6 49.2,16.9 "/>
<path class="st0" d="M50.7,19.9l0.9-1.4L51.4,18l-1.3,0.6l-0.3-0.7l3.2-1.4l0.6,1.4c0.3,0.8,0.1,1.3-0.4,1.6
	c-0.5,0.2-0.9,0.1-1.3-0.4L51,20.7L50.7,19.9z M51.8,17.8l0.3,0.7c0.2,0.4,0.4,0.5,0.7,0.4c0.3-0.1,0.4-0.4,0.2-0.8l-0.3-0.7
	L51.8,17.8z"/>
<path class="st0" d="M52.6,21.9c-0.5,0.2-0.6,0.5-0.5,1c0.1,0.4,0.3,0.5,0.6,0.5c0.2,0,0.3-0.2,0.4-0.5c0-0.2,0-0.4,0-0.6
	c0-0.7,0.2-1,0.7-1.1c0.5-0.1,1,0.3,1.2,1c0.2,0.8,0,1.3-0.6,1.6L54.1,23c0.3-0.1,0.5-0.4,0.4-0.8c-0.1-0.4-0.3-0.5-0.5-0.4
	c-0.2,0-0.3,0.2-0.3,0.7c0,0.3,0,0.6-0.1,0.8c-0.1,0.5-0.4,0.7-0.7,0.8c-0.6,0.1-1.1-0.2-1.3-1.1c-0.2-0.9,0.1-1.4,0.8-1.8
	L52.6,21.9z"/>
<rect x="52" y="25.2" transform="matrix(0.9971 -7.582895e-02 7.582895e-02 0.9971 -1.7818 4.1456)" class="st0" width="3.5" height="0.7"/>
<polygon class="st0" points="54.9,28.9 52,28.7 52,28 54.9,28.2 55,27 55.5,27.1 55.4,30 54.8,30 "/>
<path class="st0" d="M55,32.1c0,0-1.2,0.4-1.3,0.4c-0.1,0-0.3,0.1-0.4,0.1l0,0c0.1,0.1,0.2,0.2,0.3,0.3c0.1,0.1,1,1,1,1l-0.2,0.8
	l-1.7-1.9l-1.3-0.3l0.2-0.7l1.3,0.3l2.3-0.8L55,32.1z"/>
<path class="st0" d="M13.7,27.2c0-10.2,8.3-18.4,18.5-18.4c10.2,0,18.4,8.3,18.4,18.4c0,10.2-8.3,18.4-18.4,18.4
	C21.9,45.6,13.7,37.4,13.7,27.2 M19.4,14.5c-3.2,3.2-5.3,7.7-5.3,12.7c0,5,2,9.4,5.3,12.7c3.2,3.2,7.7,5.3,12.7,5.3
	c5,0,9.4-2,12.7-5.3c3.3-3.2,5.3-7.7,5.3-12.7c0-5-2-9.4-5.3-12.7c-3.2-3.3-7.7-5.3-12.7-5.3C27.2,9.2,22.7,11.2,19.4,14.5"/>
<path class="st0" d="M6,27.2C6,12.7,17.7,1,32.1,1c14.4,0,26.1,11.7,26.1,26.1S46.6,53.3,32.1,53.3C17.7,53.3,6,41.6,6,27.2
	 M14.4,9.4C9.8,14,7,20.2,7,27.2c0,6.9,2.8,13.2,7.3,17.7c4.5,4.5,10.8,7.3,17.7,7.3c6.9,0,13.2-2.8,17.7-7.3
	c4.5-4.5,7.3-10.8,7.3-17.7S54.4,14,49.9,9.4c-4.5-4.5-10.8-7.3-17.7-7.3C25.2,2.1,18.9,4.9,14.4,9.4"/>
<path class="st0" d="M19,30c0.8-2,2.6-3.2,4.6-4c2.2-0.9,4.6-1.5,6.9-2.1c0.6-0.2,1.2-0.3,1.8-0.4c-1.1,0.4-2.2,0.8-3.3,1.3
	c-0.9,0.4-1.7,0.8-2.5,1.4c-0.6,0.4-1.3,0.9-1.7,1.6c-0.2,0.3-0.3,0.7-0.1,1.1c0.1,0.4,0.5,0.6,0.8,0.7c0.4,0.1,0.8,0.2,1.1,0.2
	c0.4,0.1,0.8,0.1,1.2,0.1c0.2,0,0.5,0,0.7,0c0.7,0,1.5,0,2.2,0c0.6,0,1.1-0.1,1.7-0.1c0.2,0,0.3,0,0.5-0.1c1.2-0.1,2.4-0.4,3.6-0.6
	c2-0.4,4-0.8,5.8-1.5c0.9-0.3,1.7-0.7,2.5-1.1c0.8-0.4,1.6-0.8,2-1.6c0.4-0.8,0.1-1.6-0.3-2.3c-0.5-0.9-1.3-1.9-2.1-2.5
	c0,0.3-0.1,0.5-0.2,0.8c-0.2,0.4-0.5,0.8-0.8,1.1c-0.5,0.6-1.1,1-1.7,1.4c-1,0.7-2.2,1.1-3.4,1.5c-1.7,0.6-3.5,1.1-5.3,1.6
	c-0.2,0.1-0.5,0.1-0.7,0.2c0.1,0,0.1-0.1,0.2-0.1c0.2-0.1,0.4-0.2,0.6-0.3c0.3-0.1,0.6-0.3,0.8-0.4c0.3-0.2,0.7-0.4,1-0.5
	c0.4-0.2,0.7-0.4,1.1-0.6c0.4-0.2,0.7-0.5,1.1-0.7c0.3-0.2,0.7-0.5,1-0.7c0.3-0.2,0.5-0.5,0.8-0.8c0.4-0.4,0.8-1.1,0.6-1.7
	c-0.1-0.2-0.2-0.3-0.3-0.4c-0.8-0.6-2.2-0.5-3.1-0.5c-3.4,0.2-6.8,0.7-10.1,1.3c-0.4,0.1-0.7,0.1-1.1,0.2c-0.4,0.1-0.7,0.1-1.1,0.2
	c-0.3,0.1-0.7,0.2-1,0.3c-0.3,0.1-0.7,0.2-1,0.3c-0.3,0.1-0.6,0.2-0.9,0.3c-0.3,0.1-0.6,0.2-0.8,0.4c-0.3,0.1-0.5,0.3-0.8,0.4
	c-0.2,0.1-0.5,0.3-0.7,0.5c-0.2,0.2-0.4,0.3-0.6,0.5c-0.2,0.2-0.3,0.4-0.4,0.6c-0.1,0.2-0.2,0.4-0.3,0.6c-0.4,1,0,2,0.5,2.9
	c0.2,0.4,0.5,0.8,0.8,1.2C18.6,29.4,19,30,19,30"/>
</svg>
