<?xml version="1.0" encoding="utf-8"?>
<!-- Generator: Adobe Illustrator 24.2.1, SVG Export Plug-In . SVG Version: 6.00 Build 0)  -->
<svg version="1.1" id="图层_1" xmlns="http://www.w3.org/2000/svg" xmlns:xlink="http://www.w3.org/1999/xlink" x="0px" y="0px"
	 viewBox="0 0 208 55" style="enable-background:new 0 0 208 55;" xml:space="preserve">
<style type="text/css">
	.st0{fill:#FFFFFF;}
</style>
<path class="st0" d="M73.6,7.6c0,0,0.8-0.1,1.7,0.2c0,0,0.5,0.3,1.7,0c0,0,3.4-1.4,3.4-1.6c0,0,1.3-0.1,1.5-0.6c0,0,0.2-1.1,0.4-1.6
	c0,0,0.4-0.9,1.3-0.2c0,0,0.9,1.2,1.1,2.2c0,0,0.2,1.1-0.2,2c0,0-3.6,2.4-4.7,3.1c0,0-1.3,1,0,1.8c0,0,0.7,0.5,1.1,0.8
	c0,0,0.7,0.8-0.1,1.8c0,0-1.1,0.5-1.3,1.1c0,0,0,1.1,0.8,1.5c0,0,0.9,1.7,1,2c0,0,0.7,1.5-0.3,2.1c0,0-1,0.7-1.2,1.2
	c0,0-0.3,0.6,0.9,0.6c0,0,0.9-0.4,1.9-0.5c0,0,1.7,0.2,0.8,1.3s0-0.2,0-0.2s-1.3,1.8-2.1,2.7c-0.8,0.9,0-0.1,0-0.1s-0.1,0.5,0.3,0.6
	c0,0,2.2,2.1,2.8,3.9c0,0,0.2,1.8-1.9,0.8c0,0-1.3-2.4-1.7-3.2c0,0-0.8-0.5-1.1-0.1c0,0-1.7,2.2-1.9,3.5c0,0-1.4,0.9-1.1-1
	c0,0,1.3-2.1,3-4c0,0,0.9-0.7,0.7-1.3c0,0-0.5-0.6-1,0.1c0,0-3.8,3.1-6.9,5.5c0,0-2,0.6-2.8-1.7c0,0-0.6-0.4,3.5-2.4
	c0,0,2.1-1.7,2.5-3c0,0,0.8-1.5,2-3.2c0,0,0.5-1.4-0.9-0.9c0,0-0.7,0.5-0.4-2.6c0,0-0.7-0.4-1.1,0c0,0-2.4,2.5-3.7,2.9
	c0,0-1.8,0.2-1.6-2c0,0-0.1-0.6,2.9-3c0,0,4.1-3.5,5-4.9c0,0,0.2-0.1,0.6-0.9c0,0,0.6-0.2,1.2-0.6c0,0,0.4-1,0.1-1.5
	c-0.3-0.6,0-0.2,0-0.2s-1.4,0.5-2.8,2c0,0-0.5,1.7-1.1,1.1C75.9,10.9,73,9.3,73.6,7.6"/>
<path class="st0" d="M114.5,20.1c0,0-1.1,0.1-1.4,0.7c0,0,0.6,1.9-1.2,2.5c0,0-1.5,0.3-1.7,0.8c0,0,0.1,2.7,0.7,3
	c0,0,3.3,2.8,3.6,4.6c0,0,0.6,2.1,0.3,3.1c0,0,0.7,0.6,1.3,0c0,0,1-2,1.8-6.8c0,0,0.3-1.2,1.7-0.4l0.2,0.4c0,0,0.7,0.4,1.5-0.2
	c0,0,0.3-4.5,0.2-5.7c0,0,0-1.3-0.6-0.5c0,0-0.2,0.7-0.2,0.5c0,0-0.6,0.3-0.9-0.1c0,0-0.1-6-0.4-6.7c0,0-1.2-2.4-3.6-3.9
	c0,0-1.7-0.5-1.1,1.3c0,0,1.2,1.3,2,2.7c0,0,0.4,2.3,0.1,5c0,0-0.4,3.2-0.8,4.7c0,0-0.2,0.4-0.3,0.9v0.1c-0.2,0.5-1.4,0.4-1.6-0.1
	c0,0-0.2-1.1,0.2-2.9c0,0,0.5-1.9,0.5-2.8C114.9,20.6,114.9,20.2,114.5,20.1"/>
<path class="st0" d="M124.7,11.2c0,0-1.5,0.5-1.7,1.1c0,0-0.4,0.6,0.4,0.8c0,0,0.1,6.6-0.3,8.3c0,0-0.8,4.1-0.7,5
	c0,0-1.2,2.6-0.9,4.2c0,0,0.3,3,1.7,4.4c0,0,1.7,1.6,2.4-0.5c0,0,0.1-1.4-0.9-3.1c0,0-0.3-1.5-0.1-3.2c0,0,0.1-1.1,1-0.6
	c0,0,0.2,0.3,0.3,0.3c0,0,0.5,0,0.7-0.2l0.1-0.4l0.3-0.1v-4.3l0.5-0.1c0,0-0.2-1.6,0-2c0,0,0-0.3-0.8-0.2c0,0-0.3-1,0-1.3
	c0,0,0.2,0,0.3-0.1c0,0,0.4-3.8-0.3-5.7C126.7,13.6,126.3,11.7,124.7,11.2"/>
<path class="st0" d="M129.9,9.4v2.1h0.3l0.1,14.1l-0.3,0.2l-0.2,3l-0.3,0.1l-0.1,1.8c0,0-0.6,0.4-0.4,1.7c0,0,1.2,4.1,3.3,5.5
	c0,0,1.4,0.2,1.5-1.2l-0.3-0.6l-0.1-3.6h-0.2l0.3-9.2h0.3l0.5-6.4c0,0,0.1-4.1-2.2-7.2C131.9,9.8,130.5,9,129.9,9.4"/>
<path class="st0" d="M155.6,6.9c0,0,1.4,10.8,1,14.7c0,0-0.3,2.4-1.4,2.9c0,0-1.9,1.5-4.4,1.2l-0.9-0.9c0,0-0.8-0.4-1.2,0.2
	c0,0-0.5,0.7-0.2,1c0,0,0.7,0.3,0.8,1c0,0,0.5,1.2,1.4,2c0,0,0.8,0.6,3.5-0.6c0,0,1-0.6,1.4-0.7c0,0,0.2,2.1-1,4
	c0,0.1-0.1,0.1-0.1,0.2c-1.3,2-2.4,2.3-4.2,2.7c0,0-0.3,0.5,0.5,0.7c0,0,1.9,1.5,2.3,2c0,0,1.3,0.7,2.1-0.2c0,0,2.1-0.9,2.5-5.5
	c0,0,0.5-1.5,1.5-0.8c0,0,1.8,2.9,3.4,4.2c0,0,1.3,0.6,2.5,1c0,0,3.3-0.1,3.6,0.1c0,0,1.4,0.7,2.1,0.5c0,0,0.4-1.3-0.6-2.3
	c0,0-1.2-0.9-4.8-1.6c0,0-0.5,0.2-1.4-0.2c0,0-1.1-1.4-1.7-2.1c0,0-1.7-1.4-2.6-1.6c0,0-0.9-0.6-0.1-1.3c0,0-0.1-1.2,1-2.4
	c0,0,2-1.2,6.3-2.2c0,0,0.4-0.6-0.4-1.5c0,0-1.6-0.6-2.3-1.4c0,0-1.5-0.6-1.5-1c0,0-0.8,0.1-0.8,1.5c0,0,0.4,0.9-0.8,1
	c0,0-0.8,0.2-0.8-0.1c0,0,0.6-6.9,0.3-9.4c0,0-0.4-5.3-3.6-5.4C156.9,6.6,155.8,6.2,155.6,6.9"/>
<path class="st0" d="M192.3,6.5c0,0-0.5,1.1-0.5,2.2c0,0,0.1,0.7-0.8,0.7c0,0-0.7,0.1-1-0.2l0.3,0.3c0,0-0.3-0.6-1.6-0.5
	c0,0,0.1,0.4-0.2,0.5L188,9.2c0,0-0.1,1.2,0.2,1.4c0,0,0.5-0.3,0.3,0.3c0,0-0.2,3.3,0.1,4.2c0,0,0.6,0.1,0.6,0.3
	c0,0,0.1-0.1,0.3,0.5c0,0,0.4,0.3,1.2,0.2c0,0-0.1-0.2,0.2-0.5c0,0,0.2-0.1,0.5-0.3s0-0.2,0-0.2s-0.3-0.2-0.1-0.6
	c0,0-0.3-0.2,0.2-0.3c0,0,0.1,0.3,0.2-0.5c0,0-0.2-1.6,0.1-1.7c0,0,0,0.1,0.3-0.6c0,0,0.5,0.1,0.5-0.5c0-0.1,0.1-0.7,0.1-0.7
	s0.8-0.5,0.9,0c0,0-0.1,0.9,0.3,0.8c0,0,0.2,0.5,0.2,0.8c0,0,0.3,0,0.4,0.5c0,0,0.9,0.5,1.8,0c0,0,1.1-2.4,1.9-3.1
	c0,0,0.6,0.1,0.8-0.1c0,0-0.4-0.1,0.2-0.4c0,0,0.8-0.1,0.9,0.5c0,0,0.7,0.2,1.2,0c0,0,0.1,0.8,0,1c0,0-3.7,3.2-5.4,5.1
	c0,0-0.3,0.4-0.1,0.8c0,0-6.2,1.5-8.3,2.8c0,0-1.7,0.8-1.1,3c0,0,1.3,1.7,2,2.3c0,0,1-1.5,3.2-3.2c0,0,5.3-3.5,8.7-3.5
	c0,0-0.1,0.5,1,0.5c0,0,0.4,2-0.6,2.1c0,0-0.9,0.6-1.2,1c0,0-0.3,0.2-0.9-0.1c0,0-0.9-0.7-1.7,0c0,0-1.3,0.3-2.8,2
	c0,0-0.9,3.2,2.4,1.8c0,0,2.6-2.6,2,0.3c0,0-0.4,1.5-1,2.3c0,0-1.8,0.5-3.6,1.7c0,0-1.6,0.8-3.1,0.5c0,0-1.7-0.8-2.4,0.9
	c0,0-0.3,0.9,1.9,1.1c0,0,3.7,1.2,6.5,1.5c0,0,1.4,0.6-0.5,1.2c0,0-4.8,0.2-6.2,0.5c0,0-1.4,1.2,4,2.6c0,0,1.1,0.1,1.4,0.3
	c0,0,2.4,0.7,3.2-0.7s0.1-0.2,0.1-0.2s1.7-1.2,2.1-3.9c0,0,2.4-0.6,3.8-1.6c0,0,1.2-2.8-4.8-4c0,0-0.3-0.9,1-2.5
	c0,0,1.1-1.9,1.7-2.7c0,0,1.4-0.2,2.5-1.5c0,0,1.7-1.1-0.1-2.9c0,0-0.1-1-1.5-0.7c0,0,0.6-1-3.8-1.3c0,0-1.1-0.5,1-2.1
	c0,0,3.5-2.4,4.8-2.9c0,0,1.3-1-1.1-2.7c0,0-0.6-0.1-1-0.1c0,0,0.3-0.6-1.7-0.4c0,0-1.4-0.5-1.6-1.4c0,0-0.8-1-1.3,0.1
	c0,0-0.6,0.9-1.2,1.2c0,0-1.6,0.6-2.3-0.1c0,0-0.8-0.3-1.4-0.9C194,6.4,193.2,5.7,192.3,6.5"/>
<path class="st0" d="M92.7,28.3c0,0-1.9,0.2-2.3,0c0,0,0-13.3,0.2-13.4c0,0,0.1-0.9,1.4-1.1c0,0,1.5-0.5,1.2,1.3v0.1
	c-0.3,2-0.8,2.2-1.4,4.6c0,0-0.1,1.8,0.6,2.4c0,0,1.8,1.3,1.3,4.8C93.7,27,93.8,28.4,92.7,28.3 M95.3,23.2c-1.4-1.3-2.6-3.4-2.6-3.4
	c3.1-4.4,2.7-6.3,2.7-6.3c-0.4-2.4-2.9-1.9-2.9-1.9c-1.5,1-1.6,0.4-1.6,0.4s-0.2,2.1,0-0.2s0.4-4,0.4-4c-0.6-1.2-1.8-0.3-1.8-0.3
	c-0.9,0.6-0.9,6.5-0.9,6.5c0.2,0.5-0.3,0.8-0.3,0.8c-2,2.1-3.2,4.4-3.2,4.4c0,2.1,1.7,0.7,1.7,0.7c0.2-1.2,0.9-1.7,0.9-1.7
	c0.5-0.4,0.5,0.4,0.5,0.4c-0.3,4,0,18.7,0,18.7c0.4,2,1.6,2.8,1.6,2.8c1.8,0.7,1.2-3.2,1.2-3.2c-0.6-5-0.4-6.7-0.4-6.7
	c-0.1-0.3,0.5-0.2,0.5-0.2c2.5,1.7,4.7-2.3,4.7-2.3C96.5,25.1,95.3,23.2,95.3,23.2"/>
<polygon class="st0" points="69.9,50.9 69.9,50 73.9,45.2 70.3,45.2 70.3,44.3 75.4,44.3 75.4,45.2 71.3,49.9 75.5,49.9 75.5,50.9 
	"/>
<polygon class="st0" points="81.7,50.9 81.7,48 78.4,48 78.4,50.9 77.3,50.9 77.3,44.3 78.4,44.3 78.4,47 81.7,47 81.7,44.3 
	82.8,44.3 82.8,50.9 "/>
<polygon class="st0" points="85.1,50.9 85.1,44.3 90,44.3 90,45.2 86.2,45.2 86.2,47 89.8,47 89.8,47.9 86.2,47.9 86.2,49.9 
	90.1,49.9 90.1,50.9 "/>
<path class="st0" d="M93.5,44.3c0,0,2.7,4.4,2.8,4.5c0.1,0.1,0.4,0.7,0.4,0.7l0,0c0-0.2,0-0.8,0-1v-4.2h1.1v6.6h-1.2
	c0,0-2.8-4.5-2.9-4.6s-0.3-0.6-0.4-0.7l0,0c0,0.2,0,0.9,0,1.1v4.2h-1.1v-6.6H93.5z"/>
<path class="st0" d="M105.9,49.6c-0.4,0.8-1.3,1.4-2.9,1.4c-2,0-3.2-1.3-3.2-3.4c0-2,1.3-3.4,3.1-3.4c1.6,0,2.6,0.7,3,1.7l-1.1,0.4
	c-0.3-0.8-1-1.1-1.9-1.1c-1.1,0-2,1-2,2.4c0,1.6,1,2.4,2.1,2.4c0.9,0,1.5-0.3,1.8-0.8V48h-2.1v-0.9h3.1L105.9,49.6L105.9,49.6z"/>
<polygon class="st0" points="107.5,50.9 107.5,50 111.6,45.2 107.9,45.2 107.9,44.3 113,44.3 113,45.2 108.9,49.9 113.1,49.9 
	113.1,50.9 "/>
<polygon class="st0" points="119.3,50.9 119.3,48 116,48 116,50.9 114.9,50.9 114.9,44.3 116,44.3 116,47 119.3,47 119.3,44.3 
	120.4,44.3 120.4,50.9 "/>
<path class="st0" d="M127.6,47.6c0-1.5-0.8-2.4-2-2.4c-1.1,0-2,1-2,2.4c0,1.6,0.9,2.4,2,2.4C126.8,50,127.6,49.1,127.6,47.6
	 M128.8,47.6c0,2-1.3,3.4-3.2,3.4c-1.9,0-3.2-1.3-3.2-3.4c0-2,1.2-3.4,3.2-3.4C127.6,44.2,128.8,45.7,128.8,47.6"/>
<path class="st0" d="M130.7,44.3h1.1v3.8c0,1.4,0.7,2,1.7,2c1.1,0,1.7-0.6,1.7-2v-3.7h1.1V48c0,1.9-0.9,3-2.8,3
	c-1.8,0-2.8-0.9-2.8-2.9V44.3z"/>
<path class="st0" d="M141.6,44.3h1.1v3.8c0,1.4,0.7,2,1.7,2c1.1,0,1.7-0.6,1.7-2v-3.7h1.1V48c0,1.9-0.9,3-2.8,3
	c-1.8,0-2.8-0.9-2.8-2.9V44.3z"/>
<path class="st0" d="M150.8,44.3c0,0,2.7,4.4,2.8,4.5s0.4,0.7,0.4,0.7l0,0c0-0.2,0-0.8,0-1v-4.2h1.1v6.6h-1.2c0,0-2.8-4.5-2.9-4.6
	c-0.1-0.1-0.3-0.6-0.4-0.7l0,0c0,0.2,0,0.9,0,1.1v4.2h-1.1v-6.6H150.8z"/>
<rect x="157.4" y="44.3" class="st0" width="1.1" height="6.6"/>
<path class="st0" d="M163.9,50.9h-1.3l-2.6-6.6h1.2l1.8,4.9c0.1,0.2,0.2,0.6,0.2,0.7l0,0c0-0.1,0.2-0.5,0.2-0.7l1.7-4.9h1.2
	L163.9,50.9z"/>
<polygon class="st0" points="168.1,50.9 168.1,44.3 173,44.3 173,45.2 169.2,45.2 169.2,47 172.8,47 172.8,47.9 169.2,47.9 
	169.2,49.9 173.1,49.9 173.1,50.9 "/>
<path class="st0" d="M176.3,47.3h1.7c1,0,1.4-0.3,1.4-1s-0.4-1-1.4-1h-1.7V47.3z M179.5,50.9l-1.9-2.7h-1.3v2.7h-1.1v-6.6h3
	c1.6,0,2.4,0.8,2.4,1.9c0,1.1-0.5,1.7-1.8,1.9l2.2,2.8C181,50.9,179.5,50.9,179.5,50.9z"/>
<path class="st0" d="M183.4,48.6c0.2,1.1,0.7,1.5,1.7,1.5c0.9,0,1.4-0.5,1.4-1s-0.2-0.7-1.1-1c-0.2-0.1-0.6-0.2-0.9-0.2
	c-1.5-0.4-1.9-0.9-1.9-1.8c0-1,0.9-1.8,2.4-1.8c1.6,0,2.4,0.6,2.6,1.8l-1.1,0.2c-0.1-0.7-0.6-1.1-1.5-1.1c-0.8,0-1.2,0.4-1.2,0.9
	s0.3,0.7,1.4,1c0.3,0.1,0.8,0.2,1.1,0.3c1.1,0.4,1.5,1.1,1.5,1.8c0,1.2-0.9,2-2.5,2c-1.7,0-2.6-0.7-2.9-2.2L183.4,48.6z"/>
<rect x="189.7" y="44.3" class="st0" width="1.1" height="6.6"/>
<polygon class="st0" points="195.9,45.2 195.9,50.9 194.8,50.9 194.8,45.2 192.6,45.2 192.6,44.3 198.1,44.3 198.1,45.2 "/>
<path class="st0" d="M200.4,44.3c0,0,1.5,2.4,1.6,2.5s0.3,0.4,0.3,0.5l0,0c0.1-0.1,0.2-0.4,0.3-0.5c0.1-0.2,1.6-2.5,1.6-2.5h1.3
	l-2.7,3.9v2.7h-1.1v-2.7l-2.6-3.9H200.4z"/>
<path class="st0" d="M20.5,30.5l-4.1,9.2h8.9l3.6-8.5l3.6,8.5h8.9l-4.7-10.2l0,0C27.4,31.9,21.2,30.8,20.5,30.5"/>
<path class="st0" d="M31,19.9c0.5-0.1,1-0.1,1.4-0.2l-3.7-8l-4,8.9C27.2,20.3,29.5,20.1,31,19.9"/>
<path class="st0" d="M22.6,48.4c0,0-0.2,0-0.3,0.1c0,0,0,0.3-0.3,0.4c0,0-0.3,0-0.3,0.1c0,0-0.1,0.5,0,0.5c0,0,0.4,0.6,0.4,0.9
	c0,0,0,0.4-0.1,0.5c0,0,0.1,0.1,0.2,0.1c0,0,0.2-0.3,0.6-1.1c0,0,0.1-0.2,0.3,0V50c0,0,0.1,0.1,0.3,0c0,0,0.2-0.8,0.3-1
	c0,0,0-0.2-0.1-0.1L23.5,49c0,0-0.1,0-0.1-0.1c0,0,0.2-1,0.2-1.2c0,0-0.1-0.5-0.5-0.8c0,0-0.3-0.1-0.3,0.2c0,0,0.1,0.3,0.2,0.5
	c0,0,0,0.4-0.2,0.9c0,0-0.2,0.5-0.3,0.8c0,0,0,0.1-0.1,0.1l0,0c0,0.1-0.3,0-0.3-0.1c0,0,0-0.2,0.1-0.5
	C22.4,48.9,22.6,48.6,22.6,48.4C22.6,48.5,22.7,48.4,22.6,48.4"/>
<path class="st0" d="M24.7,47.3c0,0-0.3,0-0.3,0.1c0,0-0.1,0.1,0,0.2c0,0-0.3,1.1-0.4,1.4c0,0-0.3,0.7-0.3,0.8c0,0-0.3,0.4-0.3,0.7
	c0,0-0.1,0.5,0.1,0.8c0,0,0.2,0.3,0.4,0c0,0,0.1-0.2,0-0.6c0,0,0-0.3,0.1-0.6c0,0,0.1-0.2,0.2-0.1v0.1h0.1V50h0.1l0.2-0.7h0.1
	c0,0,0-0.3,0.1-0.3c0,0,0-0.1-0.1-0.1v-0.2c0,0,0,0,0.1,0c0,0,0.2-0.6,0.2-1C24.9,47.8,25,47.4,24.7,47.3"/>
<path class="st0" d="M25.7,47.2l-0.1,0.4l0,0L25.1,50H25l-0.2,0.5h-0.1l-0.1,0.3c0,0-0.1,0-0.1,0.3c0,0,0,0.7,0.3,1.1
	c0,0,0.2,0.1,0.3-0.1V52l0.1-0.6l0,0l0.4-1.5h0.1l0.3-1.1c0,0,0.2-0.7-0.1-1.3C26,47.3,25.8,47.1,25.7,47.2"/>
<path class="st0" d="M33.1,46.8c0,0,0.6,1.8,0.7,2.5c0,0,0,0.4-0.1,0.5c0,0-0.3,0.3-0.7,0.4l-0.2-0.1c0,0-0.1,0-0.2,0.1
	c0,0-0.1,0.1,0,0.2c0,0,0.1,0,0.2,0.1c0,0,0.1,0.2,0.3,0.3c0,0,0.2,0.1,0.6-0.2c0,0,0.2-0.1,0.2-0.2c0,0,0.1,0.3,0,0.7l0,0
	c-0.2,0.4-0.3,0.5-0.6,0.6c0,0,0,0.1,0.1,0.1c0,0,0.4,0.2,0.5,0.3c0,0,0.2,0.1,0.4-0.1c0,0,0.3-0.2,0.2-1c0,0,0-0.3,0.2-0.2
	c0,0,0.4,0.4,0.7,0.6c0,0,0.2,0.1,0.5,0.1l0.6-0.1c0,0,0.3,0.1,0.4,0c0,0,0-0.2-0.2-0.4c0,0-0.2-0.1-0.9-0.1c0,0-0.1,0-0.3,0
	c0,0-0.2-0.2-0.4-0.3c0,0-0.3-0.2-0.5-0.2c0,0-0.2-0.1-0.1-0.2c0,0-0.1-0.2,0.1-0.4c0,0,0.3-0.3,1-0.6c0,0,0-0.1-0.1-0.2
	c0,0-0.3,0-0.4-0.2l-0.3-0.1c0,0-0.1,0-0.1,0.3c0,0,0.1,0.1-0.1,0.2c0,0-0.1,0.1-0.1,0c0,0-0.1-1.2-0.3-1.6c0,0-0.3-0.9-0.8-0.8
	C33.4,46.7,33.2,46.7,33.1,46.8"/>
<path class="st0" d="M41,42.9c0,0,0,0.2,0.1,0.4c0,0,0.1,0.1-0.1,0.2c0,0-0.1,0.1-0.2,0c-0.1,0,0.1,0,0.1,0s-0.1-0.1-0.3,0.1
	c0,0,0.1,0.1,0,0.1h-0.1c0,0,0.1,0.2,0.2,0.2c0,0,0-0.1,0.1,0c0,0,0.3,0.5,0.4,0.6h0.1c0,0,0,0,0.1,0c0,0,0.1,0,0.2-0.1
	c0,0,0,0,0-0.1c0,0,0,0,0.1-0.1c0-0.1,0,0,0,0s-0.1,0-0.1-0.1c0,0-0.1,0,0-0.1c0,0,0,0,0-0.1c0,0-0.2-0.2-0.1-0.3c0,0,0,0,0-0.1
	c0,0,0.1,0,0-0.1v-0.1l0.1-0.1l0.1,0.1l0.1,0.1c0,0,0,0,0.1,0c0,0,0.2,0,0.3-0.2c0,0,0-0.5,0-0.6c0,0,0.1,0,0.1-0.1c0,0-0.1,0,0-0.1
	c0,0,0.1-0.1,0.2,0c0,0,0.1,0,0.2-0.1l0.1,0.1c0,0-0.3,0.8-0.4,1.2c0,0,0,0.1,0.1,0.1c0,0-0.8,0.7-1,1.1c0,0-0.2,0.3,0.1,0.6
	c0,0,0.3,0.1,0.5,0.2c0,0,0-0.3,0.2-0.8c0,0,0.5-1,1-1.3c0,0,0,0.1,0.2,0c0,0,0.2,0.3,0.1,0.4c0,0-0.1,0.2-0.1,0.3
	c0,0,0,0.1-0.2,0.1c0,0-0.2,0-0.3,0.1c0,0-0.2,0.2-0.3,0.5c0,0,0.1,0.6,0.5,0.1c0,0,0.2-0.6,0.3-0.1c0,0,0.1,0.3,0,0.4
	c0,0-0.2,0.2-0.4,0.6c0,0-0.2,0.3-0.4,0.3c0,0-0.3,0-0.3,0.3c0,0,0,0.2,0.4,0c0,0,0.7-0.1,1.1-0.3c0,0,0.3,0,0,0.2
	c0,0-0.7,0.4-0.9,0.6c0,0-0.1,0.3,0.8,0.1L44,47c0,0,0.4-0.1,0.4-0.4c0-0.3,0,0,0,0s0.2-0.3,0-0.8c0,0,0.3-0.3,0.5-0.6
	c0,0-0.1-0.5-1.1-0.2c0,0-0.1-0.1-0.1-0.5c0,0,0-0.4,0-0.6c0,0,0.2-0.2,0.3-0.4c0,0,0.2-0.3-0.3-0.4c0,0-0.1-0.1-0.3,0
	c0,0,0-0.2-0.7,0.1c0,0-0.2,0,0-0.4c0,0,0.3-0.7,0.5-0.8c0,0,0.1-0.3-0.4-0.3c0,0-0.1,0-0.2,0.1c0,0,0-0.1-0.3,0.1
	c0,0-0.3,0-0.4-0.1c0,0-0.2-0.1-0.2,0.1c0,0,0,0.2-0.1,0.3c0,0-0.2,0.2-0.4,0.2c0,0-0.1,0-0.3,0C41.2,42.8,41,42.7,41,42.9"/>
<path class="st0" d="M15.3,41.7c0,0,0.1,0.1,0.2,0.2c0,0,0,0.1,0.2,0.2l0.6,0.2c0,0,0.2,0.1,0.3,0.1c0,0,0.2-0.1,0.2-0.2
	c0,0,0.2-0.1,0.2,0.1c0,0,0,0.3-0.1,0.4c0,0-0.1,0.2-0.3,0.3c0,0-0.8-0.1-1-0.1c0,0-0.3,0-0.2,0.2c0,0,0,0.1,0.1,0.2
	c0,0,0,0.2-0.2,0.2c0,0-0.2,0-0.3,0c0,0-0.1,0.1-0.1,0.3c0,0-0.1,0.3-0.1,0.4c0,0-0.1,0.3-0.3,0.3c0,0-0.2,0-0.3,0
	c0,0-0.1,0.1,0.1,0.2c0,0,0.2,0,0.3,0.1c0,0,0.2,0.2,0,0.3s0,0,0,0s-0.4,0.1-0.6,0.1c-0.2,0,0,0,0,0s-0.1,0.1,0,0.1
	c0,0,0.1,0.5,0,0.8c0,0-0.2,0.3-0.4-0.1c0,0,0.1-0.5,0.1-0.6c0,0,0-0.2-0.1-0.1c0,0-0.5,0.1-0.6,0.3c0,0-0.3,0,0-0.3
	c0,0,0.4-0.1,0.9-0.2c0,0,0.2,0,0.2-0.1c0,0,0-0.1-0.1-0.1c0,0-0.9,0-1.5,0c0,0-0.3-0.1-0.2-0.5c0,0,0-0.1,0.7,0.1
	c0,0,0.5,0,0.7-0.1c0,0,0.3-0.1,0.6-0.2c0,0,0.2-0.1,0-0.2c0,0-0.2,0,0.2-0.4c0,0-0.1-0.1-0.2-0.1c0,0-0.6,0.1-0.8,0
	c0,0-0.3-0.2,0-0.5c0,0,0.1-0.1,0.7-0.1c0,0,0.9,0,1.2-0.1c0,0,0,0,0.2-0.1c0,0,0.1,0,0.2,0c0,0,0.2-0.1,0.2-0.2c0-0.1,0,0,0,0
	s-0.2-0.1-0.6,0c0,0-0.3,0.2-0.3,0C15.2,42.4,15,41.9,15.3,41.7"/>
<path class="st0" d="M16.5,46.2c0-0.3,0-0.8,0-0.8c0.9-0.2,1.1-0.6,1.1-0.6c0.2-0.4-0.2-0.6-0.2-0.6c-0.3,0-0.3-0.1-0.3-0.1
	s-0.3,0.3,0,0s0.5-0.5,0.5-0.5c0.1-0.2-0.2-0.2-0.2-0.2c-0.2,0-0.8,0.8-0.8,0.8c0,0.1-0.1,0.1-0.1,0.1c-0.5,0.1-0.9,0.2-0.9,0.2
	c-0.2,0.3,0.2,0.3,0.2,0.3c0.2-0.1,0.3-0.1,0.3-0.1c0.1,0,0,0.1,0,0.1c-0.5,0.5-2.1,2.5-2.1,2.5c-0.2,0.3-0.1,0.6-0.1,0.6
	c0.2,0.3,0.5-0.3,0.5-0.3c0.5-0.7,0.7-0.9,0.7-0.9c0-0.1,0.1,0,0.1,0c0.2,0.5,0.9,0.2,0.9,0.2C16.5,46.6,16.5,46.2,16.5,46.2
	 M15.6,46.6l-0.3-0.2l1.5-1.8c0,0,0.1-0.1,0.3,0c0,0,0.3,0.1,0,0.3l0,0c-0.3,0.2-0.4,0.2-0.7,0.5c0,0-0.2,0.2-0.2,0.4
	c0,0,0.1,0.4-0.3,0.8C15.9,46.6,15.7,46.8,15.6,46.6"/>
<polygon class="st0" points="9.5,33.4 8.9,33.5 6.1,32 6.6,33.9 6,34 5.3,31.2 5.9,31.1 8.7,32.6 8.2,30.5 8.8,30.4 "/>
<polygon class="st0" points="8.6,26.9 7.1,27 7.2,28.6 8.6,28.6 8.7,29.3 5.1,29.4 5.1,28.6 6.5,28.6 6.5,27 5.1,27 5,26.3 
	8.6,26.2 "/>
<polygon class="st0" points="8.7,24.9 5.2,24.2 5.7,21.6 6.3,21.7 5.9,23.6 6.8,23.8 7.1,22 7.7,22.1 7.3,23.9 8.2,24 8.6,22.1 
	9.2,22.2 "/>
<path class="st0" d="M10.4,18.8c0,0-2.6,0.5-2.7,0.5s-0.3,0-0.4,0l0,0c0.1,0,0.4,0.1,0.6,0.2l1.9,0.8L9.6,21l-3.3-1.3L6.6,19
	c0,0,2.5-0.4,2.6-0.4s0.3,0,0.4,0l0,0c-0.1,0-0.4-0.1-0.5-0.2l-1.9-0.8L7.5,17l3.3,1.3L10.4,18.8z"/>
<path class="st0" d="M12.6,13.8c0.3,0.4,0.2,1-0.3,1.8c-0.6,0.9-1.6,1-2.5,0.4s-1.1-1.6-0.5-2.4c0.5-0.7,1.1-0.9,1.7-0.8l-0.2,0.7
	c-0.4-0.1-0.7,0.1-1,0.5c-0.3,0.5-0.1,1.1,0.4,1.4c0.7,0.5,1.3,0.3,1.6-0.1c0.3-0.4,0.3-0.7,0.2-0.9L11.7,14L11,14.8l-0.5-0.3l1-1.4
	L12.6,13.8z"/>
<polygon class="st0" points="13.9,13.5 13.5,13.1 13.4,9.9 12,11.2 11.6,10.8 13.7,8.8 14.1,9.3 14.1,12.4 15.7,10.9 16.2,11.4 "/>
<polygon class="st0" points="19,9.5 18.2,8.2 16.9,9.1 17.6,10.3 17,10.7 15.1,7.7 15.8,7.3 16.5,8.5 17.9,7.7 17.1,6.5 17.8,6.1 
	19.6,9.1 "/>
<path class="st0" d="M23.5,5.7c0.4,1-0.1,2-1.1,2.3s-1.9-0.1-2.2-1.2c-0.3-1,0-1.9,1.1-2.3C22.2,4.2,23.1,4.8,23.5,5.7 M22.7,6
	c-0.2-0.7-0.7-1-1.3-0.8c-0.5,0.2-0.8,0.8-0.5,1.5s0.8,1,1.3,0.8C22.8,7.2,22.9,6.7,22.7,6"/>
<path class="st0" d="M24.8,3.6l0.7-0.1l0.2,2c0.1,0.7,0.5,0.9,0.9,0.9c0.5-0.1,0.8-0.4,0.7-1l-0.2-2l0.7-0.1l0.2,2
	c0.1,1-0.3,1.7-1.4,1.8c-1,0.1-1.6-0.4-1.7-1.4L24.8,3.6z"/>
<path class="st0" d="M33.3,3.7L34,3.8l-0.5,2c-0.2,0.7,0.1,1,0.6,1.1s0.9-0.1,1-0.7l0.5-2l0.7,0.2l-0.5,1.9c-0.2,1-0.9,1.4-1.9,1.2
	c-1-0.2-1.4-0.9-1.1-1.9L33.3,3.7z"/>
<path class="st0" d="M38.8,9.4c0,0-0.3-2.6-0.3-2.7s0-0.3,0-0.4l0,0c-0.1,0.1-0.2,0.4-0.3,0.6l-0.9,1.8l-0.6-0.3l1.6-3.2L39,5.6
	c0,0,0.2,2.6,0.3,2.6c0,0.1,0,0.3,0,0.4l0,0c0-0.1,0.2-0.4,0.2-0.5l0.9-1.9L41,6.5l-1.6,3.2L38.8,9.4z"/>
<rect x="40.1" y="8.8" transform="matrix(0.5774 -0.8165 0.8165 0.5774 10.2519 38.02)" class="st0" width="3.6" height="0.7"/>
<path class="st0" d="M43.4,12.8l-0.6-0.6l1.5-3.5l0.6,0.6l-1.1,2.4c-0.1,0.1-0.1,0.3-0.2,0.3l0,0c0.1,0,0.2-0.1,0.3-0.2l2.3-1.2
	l0.6,0.5L43.4,12.8z"/>
<polygon class="st0" points="45,14.5 47.9,12.4 49.4,14.6 48.9,15 47.8,13.4 47.1,13.8 48.2,15.3 47.7,15.7 46.6,14.2 45.9,14.7 
	47,16.4 46.5,16.7 "/>
<path class="st0" d="M48,19.8l0.9-1.4l-0.2-0.5l-1.3,0.6l-0.3-0.7l3.2-1.4l0.7,1.5c0.4,0.8,0.1,1.4-0.4,1.6s-1,0.2-1.3-0.4l-0.9,1.6
	L48,19.8z M49.2,17.6l0.3,0.7c0.2,0.4,0.4,0.6,0.7,0.4c0.3-0.1,0.4-0.4,0.2-0.8l-0.3-0.7L49.2,17.6z"/>
<path class="st0" d="M50,21.8c-0.5,0.2-0.7,0.5-0.6,1c0.1,0.4,0.3,0.6,0.6,0.5c0.2,0,0.3-0.2,0.4-0.5c0-0.2,0-0.4,0-0.6
	c0-0.7,0.3-1.1,0.8-1.2s1,0.3,1.2,1.1c0.2,0.9,0,1.3-0.7,1.6L51.5,23c0.3-0.1,0.5-0.4,0.4-0.8s-0.3-0.5-0.5-0.5s-0.3,0.2-0.3,0.8
	c0,0.3,0,0.6-0.1,0.8c-0.1,0.5-0.4,0.8-0.8,0.8c-0.6,0.1-1.1-0.2-1.3-1.1s0.1-1.5,0.8-1.8L50,21.8z"/>
<rect x="49.4" y="25.2" transform="matrix(0.9971 -7.583053e-02 7.583053e-02 0.9971 -1.7897 3.9559)" class="st0" width="3.6" height="0.7"/>
<polygon class="st0" points="52.3,29 49.4,28.8 49.4,28.1 52.4,28.3 52.4,27.1 53,27.1 52.9,30.2 52.3,30.2 "/>
<path class="st0" d="M52.5,32.3c0,0-1.3,0.4-1.4,0.4c-0.1,0-0.3,0.1-0.4,0.1l0,0c0.1,0.1,0.2,0.2,0.3,0.3s1,1,1,1L51.8,35l-1.7-1.9
	l-1.4-0.4l0.2-0.7l1.4,0.4l2.4-0.8L52.5,32.3z"/>
<path class="st0" d="M10,27.2c0-10.5,8.5-19,19-19s19,8.5,19,19s-8.5,19-19,19S10,37.7,10,27.2 M15.9,14.2c-3.3,3.3-5.4,8-5.4,13.1
	s2.1,9.7,5.4,13.1c3.3,3.3,8,5.4,13.1,5.4s9.7-2.1,13.1-5.4c3.3-3.3,5.4-8,5.4-13.1s-2.1-9.7-5.4-13.1c-3.3-3.3-8-5.4-13.1-5.4
	C23.9,8.8,19.2,10.8,15.9,14.2"/>
<path class="st0" d="M2.1,27.2c0-14.8,12-26.9,26.9-26.9c14.8,0,26.9,12,26.9,26.9S43.8,54.1,29,54.1C14.1,54.1,2.1,42.1,2.1,27.2
	 M10.7,9C6,13.7,3.1,20.1,3.1,27.2S6,40.8,10.7,45.4C15.4,50.1,21.8,53,29,53c7.1,0,13.6-2.9,18.2-7.6c4.7-4.7,7.6-11.1,7.6-18.2
	S51.9,13.7,47.2,9S36.1,1.5,29,1.5C21.8,1.5,15.4,4.3,10.7,9"/>
<path class="st0" d="M15.5,30.2c0.8-2.1,2.7-3.3,4.7-4.1c2.3-1,4.7-1.6,7.1-2.2c0.6-0.2,1.3-0.3,1.9-0.4c-1.1,0.4-2.3,0.9-3.4,1.4
	c-0.9,0.4-1.8,0.9-2.6,1.4c-0.6,0.4-1.4,0.9-1.7,1.6c-0.2,0.3-0.3,0.7-0.1,1.1c0.1,0.4,0.5,0.6,0.9,0.7s0.8,0.2,1.2,0.2
	c0.4,0.1,0.8,0.1,1.3,0.1c0.2,0,0.5,0,0.7,0c0.8,0,1.5,0,2.3,0c0.6,0,1.1-0.1,1.7-0.1c0.2,0,0.3,0,0.5-0.1c1.2-0.1,2.5-0.4,3.7-0.6
	c2-0.5,4.1-0.8,6-1.5c0.9-0.3,1.7-0.7,2.6-1.1c0.8-0.4,1.7-0.8,2-1.7c0.4-0.8,0.1-1.7-0.3-2.4c-0.5-0.9-1.3-1.9-2.1-2.6
	c0,0.3-0.1,0.5-0.2,0.8c-0.2,0.4-0.5,0.8-0.8,1.1c-0.5,0.6-1.1,1.1-1.8,1.5c-1.1,0.7-2.3,1.2-3.5,1.6c-1.8,0.6-3.6,1.1-5.4,1.6
	c-0.2,0.1-0.5,0.1-0.7,0.2c0.1,0,0.1-0.1,0.2-0.1c0.2-0.1,0.4-0.2,0.6-0.3c0.3-0.1,0.6-0.3,0.8-0.4c0.3-0.2,0.7-0.4,1-0.6
	c0.4-0.2,0.7-0.4,1.1-0.7c0.4-0.2,0.7-0.5,1.1-0.7c0.3-0.2,0.7-0.5,1-0.8c0.3-0.2,0.6-0.5,0.8-0.8c0.4-0.5,0.8-1.2,0.6-1.8
	c-0.1-0.2-0.2-0.3-0.3-0.4c-0.8-0.6-2.2-0.5-3.2-0.5c-3.5,0.2-7,0.7-10.4,1.3c-0.4,0.1-0.7,0.1-1.1,0.2s-0.7,0.2-1.1,0.2
	c-0.4,0.1-0.7,0.2-1.1,0.3c-0.3,0.1-0.7,0.2-1,0.3c-0.3,0.1-0.6,0.2-1,0.3c-0.3,0.1-0.6,0.2-0.9,0.4c-0.3,0.1-0.5,0.3-0.8,0.4
	c-0.2,0.1-0.5,0.3-0.7,0.5s-0.4,0.3-0.6,0.5c-0.2,0.2-0.3,0.4-0.4,0.6c-0.1,0.2-0.2,0.4-0.3,0.6c-0.4,1,0,2,0.6,2.9
	c0.3,0.4,0.5,0.8,0.8,1.3C15.1,29.6,15.5,30.1,15.5,30.2"/>
</svg>
